<?xml version="1.0" standalone="no"?>
<!DOCTYPE svg PUBLIC "-//W3C//DTD SVG 20010904//EN"
 "http://www.w3.org/TR/2001/REC-SVG-20010904/DTD/svg10.dtd">
<svg version="1.0" xmlns="http://www.w3.org/2000/svg"
 width="540.000000pt" height="540.000000pt" viewBox="0 0 540.000000 540.000000"
 preserveAspectRatio="xMidYMid meet">
<metadata>
Created by potrace 1.14, written by Peter Selinger 2001-2017
</metadata>
<g transform="translate(0.000000,540.000000) scale(0.100000,-0.100000)"
fill="#000000" stroke="none">
<path d="M2880 4437 l0 -87 -27 7 c-47 13 -185 7 -246 -11 -55 -16 -59 -16
-102 3 -24 11 -64 40 -89 65 -24 25 -47 46 -51 46 -18 0 4 -122 29 -164 32
-56 32 -74 0 -167 -22 -62 -28 -96 -31 -210 l-5 -135 -42 -12 c-58 -15 -146
-77 -195 -136 -75 -92 -121 -257 -121 -436 0 -102 28 -278 64 -400 14 -47 26
-96 26 -110 0 -29 -34 -96 -114 -225 l-55 -90 52 -6 c29 -4 93 -3 142 2 288
30 512 140 707 349 137 145 196 267 205 420 13 214 -77 374 -299 532 -160 113
-202 167 -215 276 -6 55 16 143 46 181 l19 25 68 -18 c160 -41 196 -57 246
-108 54 -53 69 -53 106 0 35 48 44 105 32 190 -18 127 -46 196 -101 255 l-48
52 -1 -88z"/>
<path d="M2670 4071 c0 -34 38 -71 74 -71 39 0 77 33 58 52 -8 8 -15 6 -27 -6
-9 -9 -23 -16 -30 -16 -18 0 -45 28 -45 46 0 8 -7 14 -15 14 -8 0 -15 -8 -15
-19z"/>
<path d="M2911 3914 c-25 -32 -25 -37 -7 -73 25 -48 41 -55 60 -27 20 32 21
75 0 104 -20 28 -28 28 -53 -4z"/>
<path d="M3602 3218 c-6 -7 -20 -42 -32 -78 -32 -91 -113 -248 -171 -327 -27
-38 -81 -100 -120 -140 -68 -69 -76 -74 -183 -111 -537 -191 -1090 -311 -1621
-351 -77 -6 -166 -13 -198 -16 -94 -8 -151 -45 -182 -119 l-17 -39 132 6 c252
13 594 59 878 118 202 42 216 43 243 28 13 -7 110 -77 215 -155 297 -222 323
-232 223 -93 -28 39 -48 73 -46 75 3 3 29 -6 60 -20 30 -13 58 -22 61 -19 3 4
-10 26 -30 50 -69 83 -163 215 -170 235 -3 11 -2 24 3 29 4 4 73 27 153 50
136 39 151 41 240 36 59 -3 165 -21 278 -47 189 -43 225 -46 230 -19 2 13 -39
31 -187 85 -105 38 -187 72 -183 75 4 4 72 35 152 69 159 68 412 192 542 266
103 58 424 269 433 284 12 19 -13 35 -53 34 -28 0 -58 -14 -122 -56 -47 -30
-141 -88 -210 -128 -133 -78 -460 -243 -467 -236 -2 2 18 46 46 97 77 145 150
344 151 412 0 20 -32 23 -48 5z"/>
<path d="M1650 1247 c-32 -16 -47 -58 -34 -94 7 -23 21 -32 71 -48 75 -24 92
-38 73 -60 -16 -19 -60 -19 -104 -1 -32 13 -34 13 -45 -10 -9 -20 -7 -25 12
-36 12 -7 52 -12 89 -13 57 0 70 3 92 24 32 30 35 80 7 105 -10 10 -43 24 -71
31 -61 16 -75 27 -66 51 5 14 16 16 70 11 54 -5 65 -3 71 11 4 10 -1 21 -11
29 -23 17 -121 17 -154 0z"/>
<path d="M2025 1133 c-31 -71 -59 -134 -62 -140 -3 -9 5 -13 26 -13 24 0 34 7
46 30 15 29 19 30 79 30 61 0 64 -1 76 -30 10 -25 18 -30 46 -30 l34 0 -26 58
c-14 31 -42 94 -62 140 -34 78 -38 82 -68 82 -31 0 -33 -3 -89 -127z m92 -41
c-21 -2 -41 -1 -43 1 -3 2 5 26 17 53 l21 49 22 -50 22 -50 -39 -3z"/>
<path d="M2410 1121 l0 -141 89 0 c48 0 102 5 120 11 54 19 66 67 30 113 -16
20 -19 30 -10 39 19 19 13 72 -10 93 -17 15 -40 20 -120 22 l-99 4 0 -141z
m164 83 c9 -3 16 -14 16 -24 0 -22 -19 -30 -71 -30 -37 0 -39 2 -39 30 0 28 2
30 39 30 22 0 46 -3 55 -6z m20 -120 c9 -8 16 -17 16 -19 0 -2 -7 -11 -16 -19
-10 -10 -33 -16 -65 -16 l-49 0 0 35 0 35 49 0 c32 0 55 -6 65 -16z"/>
<path d="M2830 1120 l0 -140 35 0 35 0 0 140 0 140 -35 0 -35 0 0 -140z"/>
<path d="M3070 1120 l0 -140 83 0 c137 1 197 43 197 140 0 97 -60 139 -197
140 l-83 0 0 -140z m191 61 c20 -20 29 -39 29 -61 0 -50 -47 -90 -104 -90
l-46 0 0 90 0 90 46 0 c37 0 51 -5 75 -29z"/>
<path d="M3563 1240 c-67 -41 -85 -142 -36 -201 115 -136 332 -12 257 147 -9
18 -31 43 -49 54 -43 27 -128 27 -172 0z m148 -56 c35 -37 33 -98 -4 -130 -39
-33 -81 -31 -118 5 -33 33 -37 67 -14 111 17 33 27 38 76 39 26 1 42 -6 60
-25z"/>
</g>
</svg>
